<mxfile host="65bd71144e">
    <diagram id="UyZic-o5J63hy0o59igj" name="Page-1">
        <mxGraphModel dx="1712" dy="657" grid="1" gridSize="10" guides="1" tooltips="1" connect="1" arrows="1" fold="1" page="1" pageScale="1" pageWidth="850" pageHeight="1100" math="0" shadow="0">
            <root>
                <mxCell id="0"/>
                <mxCell id="1" parent="0"/>
                <mxCell id="2" value="" style="shape=image;verticalLabelPosition=bottom;labelBackgroundColor=default;verticalAlign=top;aspect=fixed;imageAspect=0;image=data:image/jpeg,/9j/4AAQSkZJRgABAQAAAQABAAD/2wCEAAkGBxAQEhUQERMREhAVEBUWEBAVEhUQEhAXFRUYFhkRFxMaHyggGBolHRUVITIhJSorLi4uFx8zODMsOiotLisBCgoKDg0OGhAQGjMlHyUyNzU3NzMzNzI1Ny04KzYwKzcrNS0uLy01OC0tLTctLTcrKy0tLS0tLS0uLS0tLTUtLf/AABEIAKgBKwMBIgACEQEDEQH/xAAcAAEAAgMBAQEAAAAAAAAAAAAABgcDBAUBAgj/xABGEAACAgEBBAQJCQQJBQEAAAAAAQIDEQQFEiExBgdBURMiMjRhcXSBkRRScnOhsbKzwjNCw9EkNVRigpKTweEjJUOi8BX/xAAZAQEBAQEBAQAAAAAAAAAAAAAABAMFAgb/xAAtEQEAAQQABAMGBwAAAAAAAAAAAQIDBBEFEiExExSBM0FRYXGhBjJSYsHh8P/aAAwDAQACEQMRAD8AvEAAAAAAAAAAAAAAAAAAAAAAAAAAAAAAAAAAAAAAAAAAAAAAAAAAAAAAAAAAAAAAAAAAAAAAAAAAAAAAAAAAAAAAAAAAAAAAAAAAAAAAAAAADU1u06KP2ttcH2KUkpP1R5sbX1LqottXOFU5R7sqLa+0gPRjo7DXwsvuts3vCOPitbzeE96TknnyuXoNrduJiaqp6QxuXJiYppjqlVnTLQR/82fVXY/0irpls+XDw6X0oTj9rRVGvq8HZOvKluWShvLlLdk1n7DUlIr8pRPvlJ5uv4QvvSauu2O/VOFkHylGSkvVlGYo/o1tizSaiE4t7kpxjbDsnFvDyu9Zyn/yXgSXrXhyrs3fEgABi2AAAAAAAAAAABp7W2nVpa3dc3GCwm0nJ5bwkkvSanRvb1euhO2uM4xja4LfxvSxGMt7Cbx5X2AdacsJt8kssjWwemVWt1HgKq7FFVyn4SeI53XFYUVn53a1y5Ei1HkS+i/uKn6qvPH7LP8AFWBbgAAAAAAAAAAAAAAAAAAAAAfM5qKy2ku9vCMO0NXGmudsvJhFya7XjsXpfIp/a+1bdTNztk3x8WGfEgu6KN7Nibn0YXr8W/qtPbVtdtFtULKt+dUoxzZFLLWFlkBo6Pa2vPg9TRXvLEtzVOG968LiReTRikW0WJojUT9kVd+K53Mfd3tR0VvhGU3bpWoxcmlem3hZ4LHFkblI9lgwzkbREx3llOvdDJRLx4/Tj96P0K5rvXxPztp348fpx+9F7ax+O/8A7sOPxfJ8CmmrW3QwKObmh1Ez049F+489nah0s2rPSaWy+CTmt1RzyTlJRy124znBFiZcZFMzEamFty3NEunqNRCtb1kowj2ylJRXxZzH0p0CePlVH+pFr48iBdGNgy2s56jVX2SUbN3dWN5vClwb4QjxXBL4Eqs6vtnuOFCyLx5atm5L04bcfsK2aTabUQsip1zjOD5SjJSi/euBlKdjdfsXWOG85V5TlFcI31vlLHZJcePY0+znb9FsZxjOLzGUVKL701lMDFLW1KaqdkPCyzu17y33hZb3eeMGwU/0D/rOPru/DIuAD5tsjFOUmoxXOTaSXrbMen1VdmdycJ457slLGe/ByOnHmGo+r/UiM9UXLU+ur7pgdTrK1Nb0c61OHhFZXmG8t5eMn5PPkaPVbrKq9NYp2Vwb1MmlKcYtrwdfHDfLgzH1jdHaI1265OfhpTrTW8tz92HLGeS7zmdBuiem11E7bnYpRvcFuySWFCEu1PjmTAs6yalW5RacXBtNPKaxzTKp6qvPH7LP8VZaGn0caKFTDO5XVuRzxeIxwsspjomtW7t3R8Lp1OLlw8SDcXKeXy5Ljx58OIF26nV11rNk4QXfKSgvtPNLrareNVldiXNwnGePgyF6Xq4rn4+q1F1tr8qUWks/SmpOXr4eoi/SbYVuyroWU2T3ZZdVvKcXHGYSxwfNehrPAC4wczo1tT5Xpq78JSlFqaXJSi3GWPRlP3Mg/TnpFdff8g0reN9QscXh2zbx4PPZFcn6c54LiE31XSLRVPdnqKVJc4+Ei2vWlyNrQ7SovWaba7Eue5NSx60uRFNl9XGlhBeHc7bMeNiTrhF90UuPxfwOD0r6Jy2fjV6SyxQjJb3Hx6svCkpLnFt4w+/tzwC0wR3oT0i+XUtzwr62o2pcE8+TYl2J4fvTI51i9J9TTa9LTLwcfBxlKceFkt7PBS/dXDs4+kCc63amno/bXVVvunOMW/Um8s1tP0k0Nj3Y6mhyfJeESb9CzzOFs7q70kVm+Vl9j4ylvOuOfQovPxbOd0r6BUwpndpd6MoRcpVOTnGcVxeG+KljL5vOMAWGCu+qzbNk3PSTk5QjXv1Z4uCUlFwz3eNHC7OJYgAAAAABGesK/d0bXz7IRfue/wDpKslItHrGqctG5fMthJ+9uH6iqZSOniez9XMy/aejyUj2nTW25VddljXPchKePXhcDp9FtkrWahVSbVcYudrXPdjjgn3ttL3lpUtVxVdUVXXFYjCKwl/yTZ/EreJqJjcy942JVe671CnJbI1f9n1P+hZ/IxS2Nq/7Nqf9Cz+RdXh5fOfxPl6ifzn8Tlz+IqP0LI4Z+5XPRLoffK2F+phKmiuSnia3Z2uLyoKD4pZSy32fZYVtmW33s+bLG+bb9+TG2cPiXE6suY6aiF+NixZjp3eyZq9PpZ2bN+mn8yJmlIwdO442ZJfU/mRNOC1TNyr4a/l6yo1TDT6pfN7vaP4cCckG6pfN7vaP4cCcn0SJWvW5SlZp59soWxf+Fwa/GyUdX17noKW+cd+HuhOUV9iRFety9OzT19sa7JNeibil+Bkp6vqHDQUp85b8/dOcnH7GmBAugf8AWUfXd+GRcBT3QN/9yh67vwTLhA4fTjzHUfV/qRGOqLlqfXV90yT9OPMdR9X+pEY6ouWp9dX3TA7PWZ5hP6yv8aNPqm81t9ql+VUbnWZ5hP6yv8aNPqm81t9ql+VUBMtR5Evov7ip+qrzx+yz/FWWxqPIl9F/cVP1VeeP2Wf4qwLcIT1sL+i1vt+VR/LsJsQrrX80r9qj+XYBn6u7NzZ2982Vz+EmyF9XUPC6+E58ZKNljb7ZOLWf/dsmvVxBS2eovk52p++TRCOgs3p9owrs4Pespl6JYax/mil7wLkNLbWnVunurfKVM18Yvibpobe1Kq011j/dpm/fuvC+OAKz6rdQ46xx7J0STX0XGSf3/Ex9Z/nz+pr/ANzY6qtI5aqdn7tdLTfpm0kvhGfwNfrO8+f1Nf8AuBbyMOu/Zz+rl+FmZGHW/s5/Vy+5gVb1T+dy9kl+ZUWyVN1T+dy9kl+ZUWyAAAAAAam1tCtRTZS+CnBxz3Psl7nh+4o/aOlsoslVbFxsi+Kfb6U+1PvL7MGq0VVvCyuuxLlvwjPHqyjezf8AD+jC9Y8Tr71ZdWT/AOtf7P8AqROWzc//ADqKozlVVVW3FpuEIwbXc2kc9yPnuOXea9FXyW4Vvko09cj4cjzexx9Jm+Wf3K/8pxKeSr81WvTa3rHaGu5GNyNp6x5w661/gwdj5NX8yP8AlRTY4f5jfJX2+TzXe5NbhwdJQ7JJdn7z7kfHWP8A1fb9Kr82JJYQS4JJepYI11keYW/Sq/Nid3AwoxaJje5lJeu+JKDdENvanRVznGjw2ldn/UaynCW6uO8s4WMc1j0ok1nWbpt3MabnPHCL3Ixz6ZJvh7j3ql83u9o/hwJZPZGmk96VFDl851Qb+OC9iqvZ2ztTtjUu6xONTkvCWJYhCK4eChnm8cPfl+m3qa4wioRSUYpKKXJJLCR9RiksJJJckuCR6BUXSjY2o2dqvlVSfgvCuyq1LKrbeXXNdnNrjzT9ZINH1m0OK8NTbGeOO44zg/Sm2mvUTxo1Y7M06eVTSn3+Djn44ArvpB0t1Gupshp9PKOm3W7bpLee7Hi+K8WPLvbNzqi5an11fdMk3Te1Q0F7fBOvdXrm1FL7TgdUtLVN1nzrlFendgn+sCSdLdly1elsph5bSlDPBOUJKSjnszjHvID0L6Sx2c7NNqoWQTnveT41csKLUo88NRXFd3pLWMN+lrs8uEJ929FS+8DFVq4XUK2t5hOreg8NZUo5Tw+KKt6qZL5Y+K81n+KstuuCilGKSilhRSwku5IKCXJJe4D6IV1svGkr9qj+XaTU8lFPmsgRXqyf9Aj9bZ+NnH6e9FbXZ8t0qk5ZTthHy1KPK2C7XwWUuPDPHiWEkly4HoED2T1kU7ijqYTjbHhJwipRk124ynF+g5fSHpJdtTGk0dVjrck5t43p4eVvY4Qgms5b44XLtsfUbPosebKqpvvlXGT+LRlpphBbsIxjHuilFfBAcnonsGOhoVeVKyT3rZrlKXcv7qXBfHtK46z5L5c+K/Y1/qLhPlwT5pfAD1GHXfs5/Vy+5mcAVL1TST1cuK80n+ZUW0fMYJckl7j6AAAAAAAAA+Lob0Wu9NHAsTi8NYaJEY7aYz4SSZzs/B8zETTOphtZu8ndHHIyaO9QmpNZX3ek6stlVv5y9T/mIbLqXY363/I5FHCsqi5FUa6f74KpyLc06lp3S8PZHcTwvKl6M5O0fFdaisJJLuSwfZ3cbHm1zVVTuqrv/SO5XzaiO0BGesaLegtwm/GrfDjwVkeJJgVs0G6pfN7vaP4cCcmHT6Wuve3IQhvPenuxUd54xvPHN4S4mYAAABFdr9PNJp5zqcbp2Qk4ySgopNemTXD0rJKjSlsnTObtdFLsbzKx1xc3hYy5YzySArjXavX7alGFVXg9MpZy8+Dzy3p2Y8Zrj4sV2+8sTYWyoaSiFEOKiuMnwc5Pi5P3/wCxvpHoAAAAAAAAAAAAAAAAAAAAAAAAAAAAAAZik2ZQBrOUj1ORsADHFsyAAAAAAAAAAAAAAAAAAAAAAAAAAAAAAAAAAAAAAAAAAAAAAAAAAAAAAAAAAAAAAAAAAAAAAAAAAAAAAAAAAAAAAAAAAAAAAAAAAAAAAAAAAAAAAAAAAAAAAAAAAAAAAAAAAAAAAAAAAAAAAAAAAAAAAAAAAAAAAAAAAAAAAAAAAAAAAAAAAAAAAAAAAAAAAAH/2Q==;" vertex="1" parent="1">
                    <mxGeometry x="320" y="239.99999999999994" width="140" height="78.66" as="geometry"/>
                </mxCell>
                <mxCell id="5" value="" style="shape=image;verticalLabelPosition=bottom;labelBackgroundColor=default;verticalAlign=top;aspect=fixed;imageAspect=0;image=data:image/png,iVBORw0KGgoAAAANSUhEUgAAAUwAAACYCAMAAAC4aCDgAAAA9lBMVEX///8zMzNmn2Q+hj14tl92rWRwpWFwvVFpoV0uLi5knFlaWlpem1siIiIwMDBel1WysrJgnF7BwcFmZmYRERFWk0+rq6tOjkh3smF0qmN3t16Wu5W907wAAADh6+B2r2PN3cwYGBg/Pz8nJycdHR3k5ORzuleuya1yu1U8hTvv9O9vb2/Kysrz8/Pm5uba2tqVlZWIiIhvpG2pxqhMTEwxgDBdXV23z7Z7q3l8fHwjeyKHh4dERETq8OmTk5Ndm0/b59hnqVRRozqFsIOQt46z0KtoplOexpGIvHWiwp3L38aby4tkt0HG4L6IxHKTvIhUm0cVdxCHGnk9AAAOBElEQVR4nO2dC1viOBfHC/UCYymiLRdBLLaKVO6owLgM+MK4y+68u/t+/y/zpuk9Tdv0wiBj/s88js7UEH49J+ckOSkMQ0VFRUVFRUX1IdW/2HcPfh11r5XWaLDvXvwiOi9kMrLwQs0zDWkwM5m8Uij3992Vw5cOM5PhC9eP3X135tBlwtTMs3V7vu/uHLYcMDXzLIzu9t2jA5YLZgYGI+rtcYXChN5OY1E8eWEC63zZd68OVDiY+bN99+pARWGmKAozRVGYKYrCTFEUZoqiMFMUhZmiKMwURWGmKAozRVGYKYrCTFEUZoqiMFMUhZmiKMwURWGmKAozRVGYKeogYF68nqe5na+qKTbmVAowe7stort75RW5IMxT2s5Xvx+/v68b6TTGMN3Lp6e5eacTwxxmhJb8uLOd9otLQea1TsmtpxSKd1a/v1Vvjo9ry9w0eWMMU75t5XleFs50e0oGsz+/hm81L/y2kzqQc9BZq1t8ofCtl6i56R9XR9WbG0Az92W53C6Sde5u2CrwBrHW7XkvGczumSJb77TFl5P1zaP+XDY7a0pOUKqnfj8CKKtVjaVGE/BcS/F71wV25OiZdqfLL/mMR0Qwe+d8y/W7fEF4TdHbu0+C7O1a7FK95h9vV0eaDJi1L19yudxyHHPwLD+1PL2TZQxLEpiD4TVqNRlY9ZVSMAL+7W3evGlyZG//s3oKUVbBn6oO8wTSzMXx9t4oj3nzPgqFefGItZqMNXgkU38kBHaWj+bt6veH03vA0sAJWGo4azmdJuD5zypK7waXepxIB6YrKnjfqVIYJsLZvfS7U8hNI2tu9deP04f7K0DzSjNLyzJrJwbNk0jefvFb0JuPCLM/b4WauCzEDxNgMCLrLF9QhuHN/ffvH6enpw8P9/qAeWS5OfBz4Og6TaBcbkuQyffKshLBKENgDi694y62BeEsTpjojwrkgxGM7YFDdO/3Uw2lxvL+ClrmEbTMG90yLZo6zlBv784j+XcIzPMMuYnnFT5qmBi8KER3yvkqwpPvoZvmXz8gSo2mBdOK5pplao5u2ebJSe29FuDtF2cEow+uiziYd0MlitVoYaJwGWFGfU7q30hfFR47RP/5t0nSsEyMm0PTtG0T4txiO9crZ5Q4vctgYV64U1TShoQzwtNaXVymRSYQ20doc+0fNkpomFr8uTJYOmDm3DBPasc37/94UqXBa3B2EcwAhdmNGsLsphSSMMEMruP2FUpABugNe3/qgnllpUZuy8zlvrg8/aRWOz7uNN2tncexI5vAGdpa7PsC1PLYjVcXSoIXAB1+dDf3LIoPTpiApmGXFksTJkITwCw+T9ytJbvRKEzclJNc/NPuYV66m2NFUXSa5j0MQEeeAGRYpss2c+xz292akKxvCMzLZDAJZvphMPPBroHCrACY7+iYaQWg42MzNTIt00mz8mvDBOPuS+CkywuzWCyKby6almUeuS3TARPirHQiwpSVQiCeSDDzihAyk04GU1ZgRjB4bPlnzDiYxeKDyzJ93NyAadIsdtgoMME0bNQNzkAjwISnA3vnmAUp+wUTwOQLLWtPoD/0ncvhYS5dlnnkC7NYtHGyUWDmlVt9DXcQkDiSwuQL16/GWx34T7USwASddSXkF08C9kXQaK7DLL7ZObsWzuF0smovdNgwiybMCssSw5SFSzsj6w8LPlk9GUzrvujqjXi8t8eP5mj6CHT3hOtLAVnkr0BClqM/OMbMKiYAFU3bFFlimGCmgKwLXJxhx3UimIr1KArVTHLLT5g9kEwB8UFimC3sKgbOn1CYS8gGILK8/OHKHjQ9eSaIVpBmkSWGKY8wc9gBybYFDmbBRLmaieLMXCAYedfyBQKWWJj8LfZSbGewMAEd3dEftETTXBw2ty3cMCFNlhxmC7tBQ7Khhut/Cw6WaiPLZYG4bFvFtAbiB9nDAHYE84s1bPpOJ02YgGYlCkzs20oGU4QoIU7R01pekcuEq3Bpw7QyHm3YhIZ5b65zeGFqSakI8nx23zCzlkTV3Vo+yiMV0odp4oSTdH0GdBUwZooVoA8E09kaLyuPUaqDdgFTB8VW9DTz3jbMGzucOyzTFMt2PhRMXrklWXfbPUyYOP7rWDWCSTuaGpkwWQPmR7BM083zQvSioF3BBDNtlr3XknY9mlctmM5VIxOmTrOyL8vciCUdZYkbaz8PrgtC8CbXT4UpaizZCszZ9a3eI8wM6KPAZNR6CQR0jtsYa/1d0vjt1m5gmonj8tQ1N0cDkOXmBk02dp45xMwoiJJ2q/+NsZFkJlD6MJfLd7hqAfVm7k5WrQhUw7m5TpMEJn/rLVMbzFuYK8mmk7+lWPWWMsx/zeBj6sq2zCNPAHLA7LDgOxKYWpna0OXqF/hCM8KFDtDcKK2qt5Rh/uft7f290rFhVq7MlQ50OolYJguS9wrhEpzcsjLpXjnvtxVMvJ4pX1+mU+OaPsy3JetQZ2kWIViJJnbMhDRJYWpzvLwWIwbfAjaqIywO51uYweNDwGTdevNZHDYtU7QmQBFg6qvXj4ElQ5G2LfiC8i2xt6cPs+Jm2WFhEYKrCs4eM0WHZQLbjLahhi1xjQkzA5fZEnp76jARlhoiwzAxG2ouNyebTpIr+u5kPuFRCBzMfAZ76RzjUx6YXpZg2DxyJO01fDSHQosQ0oVJUoSgeXv8g09emGAwwjfXw2yroTDrXztemuy7cz3TF2bn+X9I1pxJUh2TUebu1srXRBvnYeWSEWDyQUuh3splFCbTKOFwVu0ZUM0nAHWen+voDOTuTIhdOCC3kL0+35MPHgFvjxfb3TDl1m1w8Rxaqe2ByTDN8ddnhGen4jxtgUuNOl872Mnc4FGIUeYKNxpwsXkwJ2uOL+TnMWbnDpg8uJnhBt7/5qwxxsBkmMWGRXCCYbOKK0IwYHa+liTf1/PftPdTUNl9b0hWN8zH8XYLJq/kCY8X9BzejoUJ1GYRb685FjqQxWH2eR18huU8Ul1laIbjPJEWck8iZp4GTDmgqhqjwYtR+eAHk2Ek4O3O/AifZxYBykn4Yk33krBSky9cfyPwrjlZha932A0WhClfz6OadG8Ijzf5wwTeXn+2vb0jmlVwjgBUFCszwqMr/VH4WZMos8JycEFaRn/ae8Rxs3udV1rxjg9pB++EwM6rk4rl7Z2lZ6FjWVk3g34dfb2Q0U5uPUWZwXRfAqu+WpkYZ9TOH+N/VEl3/i3skpUd22/cW73LLwT+jbyev7eDbHseNdvuj3y8PeJBvJ8odWPgrBzblplbjqU4jfmcV9L8O553YawdpNrJ1zx2pwkcPDuiAbMWdIxqMW2321JAY0PPaCcLZ/HtCM2cQ1Pt/UvKfu10Ojno5u9L/wN+0ljkSqUSlw16XIL7/ReE12SPEenb56y0ZP8QPu9qMXt+ZrXTPv6H0dQGZxf9cO2A5HPwasR2XlFS+DglI3MGQSfeYLEH9ers83uAf2/1+ilO1P8uiXUpoLGyrMiycJtWnBg8XisfNOhElzTTCwGggzfW8IcSVwry9ovhkH7qD0ZTvT6yxJnP7mjWDbYlkgPUVJYWdX2o5LiJI4dX25zh7ZEy+8+t1YYrOat2HZJmnO7tcR+O8rmkNsY6L3Em4f6/uTa8nUtcuvKrqzkx4nfJs8Zua5s1cNdXP69nB6eVGbK5kOeZNWam9VJvxyvEv91ambE963xcQqO+rtfxz0/4TFKnRl7O1Qkjtbo1Y3vdmBip48VCksBfq5118yDU1CpLtZQ80hpcwxg8jVFhtmDG7QbbY0q76eShCNpYjBGwqWdRombN6hrwnExnDLNepd/Dw5GkwZzFysTVLaBZqmvfjgHMaSMLYCZ8fuRhawKAcFK8311wJsx6gxk3ma/qYpxi1w5PbQzMhiRJ1gDabNTHIgc1rk9dVzYtmEwd5vHt2a67+7GFgdkA7ERjDG3MRK5kncsBaagzpXfAZBaTyWS7+jl9/rDCwdQOjkCY6lonWTKkA7WudsKkYkJgjktwfrme6Frra3OieTmFiSgI5hRmoM6a15U+fTc8ncJEFARzpqU+7pLXBbRVY0ClMBEFwYRW6P4/YK1g7DSCNoWJKNAyNZpjJKHfbjbWdgaF6VbomKmtDk1A3omZuVOYiAKj+UzfOS+B/FIUS7PxpN10MqUwEQXCZLbOlB1SFbP2Qh2FiSgYJsNIGziZNDJ2x5l6hsL0KAwmoz39qiFNQNgRAVV9EmTQpDAREcC0tZAmekzSE3kKE1EAzOl4PPYuA2mZfFb/ZwoTUQDMNXapsw09HX5LYSIKgKktpGc9q711bY65gd9SmIgCYK60JwyVkOKiqWNyTmEiCpwBwec1ceNJowFmQKrUaGzgViZH5+Z4BUbzqZEKcabgj6LJj8JEFJwaNbcV1xQIcBXtkxkUJqLQPFPazrIiEKd9ma2njr1cChMRhOnO0L1JOxgwGQl+dWlFYbq10IIM5wrZ/jMg92/WYWCfhF74iVTn0HpgIpgro7Qwu9veHZq2ZvW/Wbk1zobCNOu2xDWtIXZLrRvHK8SN1JD05XUxAJI6qZg1xp+6sshPU7P630glubbvpXaNsf81n13Sxn6kd0n0LQGOVGP8mQXMU9dGwl+gTriINcafWWpTkiQ/Tiuj8ChijTEVcPuGm5hVdx3vnP8n1qqd1bzdslHLv8UN9e+IanIVI4uUtB9XxsO+OZH6dxw1N0b+k21LY2OopGcmY6tpRW7962y17x4dtozP5dHOCNFz5sklrTmRE2chxympCKV6FjGpqKioqKioqKioPpP+D1fz1yNh16ZwAAAAAElFTkSuQmCC;" vertex="1" parent="1">
                    <mxGeometry x="40" y="360" width="170" height="77.83" as="geometry"/>
                </mxCell>
                <mxCell id="6" value="" style="shape=image;verticalLabelPosition=bottom;labelBackgroundColor=default;verticalAlign=top;aspect=fixed;imageAspect=0;image=data:image/png,iVBORw0KGgoAAAANSUhEUgAAARsAAACyCAMAAABFl5uBAAABAlBMVEX////3AAj3AAD8///4AAD///3//v/0AAD///wAcb3/9vX//v35///+7+///f8Ab7wAarv4JCoAaLz4HiT7m50AbbwAZrcAXrYAY7gAbr0AbrgAZbQAYrf3gIT4oKX5d3n75OXC2ejp8/g4i8SCs9qqy+bR5PPv+PpsodWw0eeTv9/7tLT4yM33bnD429398Oz2Chb6kpb4Mjf4Oj79x8b1RU72iIr53d/4dH75XWH2goj5vMH2TFP2RUf5ZGn7p6v4WV/4g30LgMdYq84AWbZtqdLG4u82iclTms2NtdkLeL9Xk8jL2++yy+SZx9uIudrO6/FNjs75rqz2bmn6r7f5ZFrGLS0EAAANaUlEQVR4nO1dCXfaSBIWXZJa0ELIsoUF+ABxCGFMfMVOBh8ZNhzGk7FzzP//K1vVAl9DZrMz+wIr+oufLQmR1/pedV3dqtI0BQUFBQUFBQUFBQUFBYW1QF6IZQ9hZdHbshU5iwE5/sZe9iBWFIZ2dLzsMawqDDg5UXKzGAac6vllD2JVAZusu+wxrCggp3PFzWJAjyluvgPY01lv2YNYUcAG40oXL8YZZ29h2YNYSTj2KdO3FDeLAFssw/PWsoexggDoccbeYdyg8Brw5kjP8Oqyh7F6AAHOCc/wc6Vt/gQHcqdIzQaYyx7J6gHebCA1/MJ+4kaxJGHCxRHLZPQDeHFxaeNZJUCfITXsGF7Yb+UgU9LmmOtIze78gmnZ0Dt/V13imFYF4j0javbncwggv7fJ+7DmTqDpAFRRC2cy/BfNFMiLBXbvkLNfBGhrrm9MgD4nVcP3EiZsrXvF2OmFvebEaBrqlWOihrM+cYGWqXfJGT8GDBzWfJnKAPMaNU1G37yQYgK5Xc70jd7ay4xmGuBcMdQ17DKXLGZ2j3iGXQtYc5EhmLlTRlJznXjAZMm5fqw0jUam+m1CDcggCg5J8dyAtuamWwKuyXazD4mqmVFjqyiKsCWpObEceXZM8dSx7agZhea6SsabclmoeQV0kSj9Cgylh9F82/tEDZtlzuGEZTjvqW0CEkK6w5vJHIIzOrla9yhhjp6cUVuQiAopYvbrkoe0MjgjTaz3ErsEG+ge819Vqi9BT0aYsxOQqa0PYCpyCHkKFvSZgjFlloLnVSZdAjBe0OfcQEb6OufK8yMA3JAfPD+V0UNGzytDRTCcI5ZhPUhs+Jbkhr9VkyrBDc/o5yBXv6FKaRwUnC0VhUvYb3WWsWaR5rUUnAxXeS0J8w3n+p70/cCucskNO1XcEEDr64zlyOEDB7YScvSbZQ9rRQDnnO/bSY4CruT6HT8FJTkEgEOdnyURFeSPpI/D3ihTlQA+sCMHkl0BXTmr9KqSmwQAH/j1/HhXhuY5xU0CA7QPrJ+ECnaVSfdPcfOEa7RVBMem5N+BouYJ6Pe91wwy5Giq2NXMbEmYhiYsoVmasbbrMnDYJWGxxRHjLzQxaALJAc1Ys9VxJ3o8FNCnNV/octaFZ2KjGfan9qCQHbRjZCz97ODsiGq37UF9GEevHte+ZK+iqehft3HcGQS+NxgZqedGtDrjnY/1TqhZhvkqIXFwmn/1/rODswkMEZcK5e04xdvV8dFE9Hu9UiwOw+TCi4cF6NGumxk3AkzUzmjgkwTyyCtki2F697iBiIau55bH4UIBACdv288+MaKHh5nqEabRcAuFiZXaWWXFrl/OZv2mJgwEiY1B27MMYVoCBFmiWbmFsNVEhTSIny3/Rm655Ifp5WZQLBSy2aw3aY7C6EV6z7ajKAxbtU+dxmScrWwXg4/l5gtFLaaFrNdKrcYxwnZ52/VLZd8vFt3sdDyuJxhPp9mS6xUrnlfEn0qlfHdbsw3xnAlASx60UqtvKHs+ur2buh7C9X35x8UzFxkhVjwvO540Or+FC75qF7NZN0wxN4Ly5kYYjmKcPMN2eyLRbg8b951PcSuM0A220LYv8GRir1Aap1cX/30IYdXLhSBe9jhWE51g6tZTq4mfw9DC36Mf1h2WY9S8sj+N/vOt//8Q4XB7ZPxwlsY0RuWSN02zIn7CyC8XI3T9TIO2aZG/JwRZbLogEUaWOWcCD0ZueecuEpbz3f8xPSiVCoXBp9CeP75AehILFLVqzWE9Wxw/WI+BlegErt+0rPVYfBhUCoVC0csO7iZttN5NROe+0Z58npbQKXQL5bLr3pN2QXHSwvq2P4wwrlgLTaxF9YqLwUOhUPJ99xG+X5IhRclFX7BQ71g026CzXW6sh6ZJILTfhtmg6PqSi0cQV64blKeTTs2WWT4RD+4+reGu2oe4MRlkZfxQqRQxYvDL03r7tjl6liltxWskMU9A/SssC6PvVqs1quGvMEoiBvFk3AH17zpGCYZjWH/eE2o6L5KBaL/Xc9/oyxyEwhyGZj00Hv4UVgsDJ5Ew18RcfweGPanUyRl+eVnIt8osa725qXsFfxKHr+yzHdZ+b4wbaxFUfheRh/6MLxOjk2GDPONOY3g3KOMlv+SWOpFcHl9PiPsd6fYV0P1Dl7hS9Fzf9cuFknQCy543jNbvrQ+y0BROi3ga+NlCOfsa5XLWLWbbozXdZ4L61kF9G0+8ysuwoVDw/SAYNGrWOpl3U5hICTw0h3efJzGtYTpoouzavQwbArnOQIF5+76WKGLn1deNH0+F/b/B0IQdtwsfp41a+Gxdl6x1FIbhb7VaKwwj28IrC4MEqxOlNHjA0Ckc+l7QpnVJ8axQFGjwVFRfLgMvZMAAKx7/hHEuA5bdKHql6cPfDarBigbTlMpNNPALWbcx3wnww3p2bsWjZiEbpnLdztAmPlkhd1Kj3Xs/mPcVYBhIh4BWZxJsS1fZsFKXTUduKmSg0aXzJx3UxT8kAMKOWnFnOKhsfxx0IsMh0/+Qwn0U9pD83gLCd4vugPYDNKVhen2j3GcSNzu37fp4WgmKwceg3nkQtESFTkBtaqePG4GezG17XC4GtH0C4QbozlS2d4pFvzB3+wp+sbizg9GD51Y81/MCf9DujGCe67JGk4+1FBaonRltO2zFjfbnQblC1KAElX3yhBMgaWW/7AZBUCxPx+1G3JJSBZZBGjxsDoIgTnWdSIHqFYVIzpxOo9Ge1D8jxuPx58/1u7t2o9GJaw841dAHnK/cIaUP9/XiTnAXWilmhtw7ECZ6gs7ifdR0DaMDC0yYL/7Gt3elba/oTlANpz0wF0YYtyijJbmx5qk/+UdY9IfODQONVHM4LnsVnGOlSXMtsl1CAE6RKZqq22ZcG5GxijBUAtoKSfu50Eg12nUMQCvB9k7geYNhs2VZ2hq164paTdoPurP9cZvgBV4Q7Ozs0PEO/QQ+5QM78cNayMsLmFIlo7CErdYolglRiftOp9mMR7SOJ6RTLBYsYaUdiY75i4lCm05QF6X/7Q4FBYX/OUD6dMsexWrCyedyubyqargIOcYZO0p1PPS3kWMswzaXPYrVRE5WgFz2KFYTipvvQ3HzfbzmxjQdQ3N+IFbC++aLfSZGWGYKt5685gYkfoSb5E75Hce2IYUlTp5xA1Qgqdc/OOhfGMmpRslOMX9omd2SKVF6EyR30T/4ctClMicit3VT7aavt/gjNyYYZ/ubTGcIne/mqW58jut4PC8ICQdc1/k5VW7rHZ9yeSdjb7soMzdfrr+lWG7oyfFfJilXx9kZvQzznp6+P3/qLTzh3zQtf4L+YlLzL4Nf2QWoIlLKzYZGbaY4MsIRTFa9ZvSwX6gg7fu53FANRH4hy2IzSaS8U+dp7br5yI2W50dfv/Wq+fzFLxwpQXHQtDfEDZuHopvoQmdAlrS73KI7q/0NIucopQX4n+TGTPoY02N29Vn9Yriij/uJ3QLZAoXqb/Xy81stKoqd1q7iT3LzDDZRwi3NtKkGLdtP7LNkbAt5embh4RvdufcTB/wTsZAb7ReaKigccEEfyzDd0PZIbs5e+TFUPpxv/azR/lws5uacruZplxspFN61ydU5JP2be7Xy3dOfGjmkDX8tN0LWPGTUkBUEda29nN8xd/Rk2fn0c4Nuf657fH11urFxNONG085ILjbo2auSBXmnaaD7t3d4iXdu6lT1OfXcaPlddFjQE9a5bFgmubHomJocwx6xkNgyDW42dHSE0MORnZjSzg01/pOtB8ijY4/cyPZKVLgY3rOZAGHUdYV36ESkdKTTz80ZSojODw961Wr+3eOc0g6YrHgNFvrAbFeSIDZkh5i9Lrp/XZZ6bkzNQWrYySwqOn/kBnIygsjLRkuMakQaGnUZYrPY8iL93AB8IaU7awHzaKfoPbxLIuUA3nFydAzqhEfp98NZkqeXfm4E6RXG5o7dEzeW9kVacW2T02+Y9VzS58F5L/V2CjTq/cc4yJdVTXjiBm03CdSp9GMSK0UaiJ/Nvp/+OYXycinVStJ1QGYj5txQcxicQ2zegwAoccGPZ9//xlPMDZdzyoJ9Oti3AWy7d/Vkw6m1pmzwRiFlwhzFnPoR3gi2tfu8+VvakKcZc4IucV8WRL886H77wNABfOIm6WJGH4pZ5pzcH3601+3voo/D08tNNWlmp2k2Oi1oxWW6WH+/wSnWlADYlOSw/dn+2aR5DhFIS+noEuopjcN7fN5iNL+pJ82UOL+BS3z0GTcUbxL4xaz/HWBEzmZZ5fdOHz9KpdwIrU9z6lAuteSONylZvHmMpOx9/fpHUkUefb3e169fD7+ez7ddoy07I+4YO+wCVP94/8eXNHJj2O+e8i8Uh1erDtBmHFK0z16JIrfmxfODiZEFKm7HtEGzU9hf0sSIgBq28Sokbo2ZrE6iw2sZz980s+TO0eclXiBhCwk0DUOkjxp6YfU6aUmR0oWCfwBInBreS/3LGv89qtTlj/NUatJ/ig9yVfImhZr0n8M55Xyjq5hZBDv/9sZW22cXQb7JoqRGQUFBQUFBQUFBQUFBQUFBQUFBQWGF8W8UTxpcawN+egAAAABJRU5ErkJggg==;" vertex="1" parent="1">
                    <mxGeometry x="320" y="360" width="127.19" height="80" as="geometry"/>
                </mxCell>
                <mxCell id="7" value="" style="shape=image;verticalLabelPosition=bottom;labelBackgroundColor=default;verticalAlign=top;aspect=fixed;imageAspect=0;image=data:image/png,iVBORw0KGgoAAAANSUhEUgAAARsAAACyCAMAAABFl5uBAAAAw1BMVEX///+aSZNqFXeBMISSNYt3D3rz7vObSpSYRJFiAHBaAGlkAHKUOYyRMYmWPo6CMYX7+ft6G318I39mDnV4FXvKscu9nb7Lqcfu5O3Tt9Dh1OF0AHjTv9TCrMbLuc/bxdni0ODBmL22g7GweKujXZ26i7bl3OerbaXy6/KmZKCeUZeJOYm2krd2JX55J3+6or+FT4+hfKi2nLumhK18Pod0LX+uc6idaJ+NSo+ld6eUWZethK+YbqCTVZWHPYmsjrOQYJgRQn36AAAIxElEQVR4nO2d61riOhSGLRSaHqdQjrVAlYPIVkHFmXG2e5j7v6rdFtEekjS0Zcqqef/I8xhL8tm1knwrlIsLDofD4XA4HA6Hw+FwOBwOh8M5GaY7HA7tsntxjkxudE0zNE3/7pbdlTPDXWlI2IPEGb95PlneiEIIpE+bZXfpXLjSkRAF6b2yO3UWDA1DSGIYTtkdKx17pmGU8dFmi7I7VyrNaSKcwoF1bZbdwfLoUZTZq9Mvu4slMUG4RBNLO2hSdjdLYEFMNLG0czsou6t/GfM6JZzCgTX/Ummnz6xMEFji10k7EyE90cTUEb5G2hnciuliJBC/QNox50eF0yfVTztdMZsygTpat+zunxB3xTZvk9BWbtlDOBExJyIT4s2y7GGcADPpRGQB6Vdlj6Rwhtqx8zYJQxuWPZhCsXMmmijaqjqmKdWJyEJ1TNNiEk1cnSqkHQdreebHQNBNU1YnIguwTdMmuxORCcCm6XFORBagmqbHORHIMAzNxzDQUd4OQPdiwL5BQIamr66vuo7rMXH6V1NB1wxmgaCZpuxOBNL0aTeRU027f6OzygPLvWDdICBNvHZJFzEn33XGqDREKO6FecM2byNtlbIzavYR4xJAuwVx65gSWyxoM5fhao7EKLQEQZwZkzSaxDq/DDWmC6LZSUdVCH2W//Nx65K5zqT22S91TJZxaLPj3DtbSL11JOGfxomGVBhDhqklwx56Sr8bPWXq9da5T1bT9OSgZ1nJdmn3o4TqHg8/Ch9NsaRmG4SyLWNdojgS+lYPaBU8loJJTTfZ59oBXvYgnPY0znsab6bsotAqe/9x4kjShzKeNudtlKZog4Q8/9pB4uL7RFMNbbR8vbejEfuRaKqgjZ7XxByGLh9KNBXQRsxfdJsflk+RRANfG+O6gDdYIWw4QdcGFfEGAz0IJ4wykLUR3ULeoWckEw10bdC0oLdYEZQBrI2e0vHmpD+fTq/nfZfe0P5JkgasNgZ1773srfzSgodhaPqsT1whNn80iNKA1UanLIgH06hpjgxS5eDusk2WBqo2iHLb4Oo1Bs4YHLdpyoDVRicafQPCJz60WezWWfzsUJWBqg36TvqDCdHUQEbY6DFfL1OUgaqNRrL6yNJ4iJ/i9Br0cIKsDaE52czb/9n7YCf1VroyQLVB82Nah/5u5bca/KLM2+C1IYVUapnPmF+Y/14+sEkDUxvC4maYarxLWq+VSDStRmOfffwXLeDakMqx6dKgejIFt9wL86LXDupR5sW4BVsbA59uuillPqxHU693/IPXgTa+VeZA1wbv90l0ZfBORKt1GWhz6b3w65jO5WfQQdRGwx6xX9AmKZzl6dMed7v+Etvuevju88D72QasjYjtc48SUoRwIpQuG4C10bFNb4kTOMHyrKQ2eKOYtCQmWp5V1AY/hS/x6YaUaA75ZuI4vgILx8Pfbi29ny3A2tzgWi6wqxtiovm4cWLz1Nh7cfhdZbSxcZV/RL1p9nyub4I5HPb6hlUbSahbtXrKfVMxbYRbXMv4oQgv0dR87unqtNv7mGp4L/ZrvzbotR82F8daespYtT0PFHEeend3fgqe3Hn4Ii28n5DXfga2aTimJOH+oAxdnarN4YS1383H2k+S6mFlaIFVOW1EbJGhb0QTTUydb1h1KqcNfq852C+MJXRvYbQhBFZ7sLB9o2xpLxYLX4qmvbA7gLUheBS+IyoJD3hlfHCB1ekE89Tdpfdiv/brfJStIGpDsNIdTZK+kZUhpZ1qrW+EFb5xaN4mqpO0izu+bRNo439AfAJdG8L5EkdJUaZWUxz2MgNMbQxCDeaXmiKN+ubl7P8Yy1MwtUGEU5CmSo8pqxY0YyxrwtRGEAnNF/SoUg4Lox713A1sbYhnBVyKOJbyeVS7yXCMAqg2eJvCx5ZJYaXKkQ8T2anHb4BqQzmb1HyRsdLI23iheJhybAuqNoTSZsCTkpyuVGWNaXlHn8+BakM9C9l8VCKRZcnKM775knZMFKw2tBvHm8zXG0WWVR9ZVjYjspDub3JgQdVG0lM+pmnao93j2+NulPYMtjuiOEC1kVBtU9BbvBD9dpDaBE6EMi7kHZ5koi0IUJuDEyEX8THcwX6xiLUFwWkjfTgRahFR9UKpRkDTJmx5yk+5r/8aWgolAguWNjHLU8n73LBRZPsVDyxI2iQtTyXfY8MSO9NoYMHRRsJYnpacp/s4RyMcWGC0wddWLDV7/xfYTWloPj9zbQ7P6gjOROCw1KwP9bZJVs9H2rk872d1XBiHcCJhydkezEwz3t/TTrvgsRTNtV+Q+02trSijDNfd0d1TP7DO/tlAjhY7E4ET5+3Yq5obvAH2iRdYrbN/jrpISDRh1NpxcTVR04o1Hg+dE42oOJ7S/sM+lvLIfkXzT3qNr1bIqvvkbBn+x75Tzpp1cJYp7oLbk46qGMx7prHU5BqLOmuZ5T70w/TMJ/B3UhPnHktWn+irtcGzwnYpTFXiXFmzhYFfTtiMSPIs11v2ywDINQfMNyV9tgqwZGW7c+L6LJ3ne4VY1YtfQnk7781CnMWWMRr8bYSsyJvX3bo7Ho9H693bVlHklFMEIeQtvK8iGKvM6gQCqfIelV0WXxm1GBv6b7NjzReZUZVd2YPMSvMPa9rJhKX8gZVootiEkwBFIL9A/6qlkXyawFLVc39cMQunSDuAE02U5a+C046XaKrzlYDufZFpR35xyx5QoRSXdth38GAwnwtJOyrp2BJsBpvcacdSNrC+NIidSc60I9+7ZQ/hhKxzpB1Vxp2PrBDmY8bAUpXHKiaaKJnSToUTTRSndmzakWvQv0yTHcbawTugLM/8sJumXji9Vj/RRGE1TRWAlmd+WExT2YJpeeYnzb34YokmCtU0BVdbKRqyaSpvoVue+cG7F9WwPPPznAisylie+YltIypleebH20Yc1LGq7URkYbxVgpKv8vOrrmhoNCej9TpxpILD4XA4HA6Hw+FwOBwOh8PhcArkf1b4vaymsySEAAAAAElFTkSuQmCC;" vertex="1" parent="1">
                    <mxGeometry x="320" y="480" width="127.19" height="80" as="geometry"/>
                </mxCell>
                <mxCell id="8" value="" style="shape=image;verticalLabelPosition=bottom;labelBackgroundColor=default;verticalAlign=top;aspect=fixed;imageAspect=0;image=data:image/png,iVBORw0KGgoAAAANSUhEUgAAAW8AAACJCAMAAADUiEkNAAAAclBMVEX///8ArNcAqtYAqNUAp9VryeX1/f4mstpEt9xlxePE6fQArtj8//8Asdo2u94Wtdt0yeVOwODj9fqAzOZbw+K75fKw4fDP7fbr+fzU7/e14PDd8/mW1usyt9yZ2Oy95/Om3e6I0umf1upXvuBvxePJ5/Nk+R6QAAAMzElEQVR4nN1d25aqOBBtKhEbwQsgikdBaPv8/y8OqH0UG3BXbnbPXvMws9a0SRWVumUneXv7Jci3x031UacN6o+PzXHnv3pG/1P4u6peL0lKKUhcQaL5z3CRlm61HvlfiFwO6w5JtjqFstEved9BnhAyPB3s69xPdlmZfp7ei+m8xbIoTp9pOdvntkd2CH+2evdkv6rvlN7Y/DTdWptFvq0mp2korh+drjiPK8X8fbLZ/R9sPdrEoRCjmr7TeaPy0oKR7/9MCk8MrK7rEiNBYfDnl9v5LBgTckDlk73JKeSbgJ4uruvYTTRZVL82fCeHuWTp+goh1zszM4iSsmh0zfzeK3tOzSJ2E8GTtCP0JNGfQXJolK0wupDx5re58tkJdtr9Mnu1nshRdvKUZ0Cy2BhShBNsY2XT/ieymM7UJ5AfppozEMXRnD7sIomV3PY3yImiieepuiu7G35hNG7bgl8bkPUCClUiV54qee2e4aWmT3OBbG5G2IvE4sAd36/V3fY3iOKHpyp5YMaV3CRe89Lhja7f7oKotqQpI9iEBo37AlEwMsO9fpz+Nn78Y0vOaGJcWq81MThslbxSFhzf+6E+ZT+3IG0rsMAEThbSzviytKw5JWyMu5J/AhOSiWc2jPsCmVrXHhu1HeM6A1nSteFA3YEIflhiGAXWrPuM8IkPz2O744vTj1K4X1g0rjPC0bQwmdpVd5umuNIlgNxSpLwDFSPjb23kRY8T+DkWnoT2xfXEZHD8o03XfZtA4FClY9i7UHcj71CHdOPAus8T+BlZiq20+xHk9cdMV+puFP4T8vBk6kpc6g1ZmTN1N3n46ytN35m6G3F77GvmxHdfQd7L95KtJ4Ideb+1jrYWq6y+Cbw6K1y7VLdH64fhnWRG9xDVK7T8D6ntMuMBDw40d+jMLqDQAG9AGZVjdXtet+qxXMT3QTwuMYfY2uvIDYqb3Y3venWdIbNBfViGP3+BuHcGvnEbK78wfVVdv1YyL7pRv1X+/Gbge1XrpusUSG15ygrUz41jrojuz5V88yIhRfGZllWWbcr6syAmt8+7y8iiJXv4ywyoZXzXdZ1+npaCP4EmZGIGXk81Ef69/7kdW90kwzTL775alB9TNqNTXPd6Jnzzbj5vXM/uZuDnWbpkk1UwA68laWLaMfApU1Yh1727YrMJz8Zodf6zjKulRtnBsc8ydykxGbRzQN2ZdnARHXXVPHlFWA/SCnKcodM4Xu9M68t5hU6j0Xg4r4hKHo1DPE9REu3UTazuf2/LmyCloySOvAam10Q5KibZ5Yd423fkpeNlil97DP08r+oj7TYHze/XYvTOmZ5YP2WQ7ItRBbYHD4qg2n/NgeVNnn3tywQ4tdNTRkwgxR1UnLfseBNOYSlCpEKIJoMOr9F1GJTJXfTgNCVJBhhfiOEhn7Ia6/Pp0i+sbghuWN8Q37C4IO6oO2esPrkG+WBpr8KbjC0uHw+OcVRDcD3I6KS/o79pBitYXg436ZsWm+BYHHpa/Ake+0XM6Fjj/QmcYmcCe1heHoH7/jM2un5vcuXe/w9uApPgsVt3qMLd7qzB8rK4rW9fWUebiLyvssE/hfcYCPclVxzBhfutEW8TO9SbiHculTdu4rpcrqpkrGSOwc+tQmwtMdlonH5kFqh5i4I9qahMx3XdYIaqG6TVdgEm9tLQAVEAqHk/1P/GgJq3VDreBlLFHDpwsFFEoZ1zAWhlKxUPUGK0alo9/yUzQLdolVYzgAAcXpkMhZXOY3RGozhg9mVrwSXQ6B7FyrswWPpDl9/fpRPTWHXccFRg6rZF1MA+N+PMz3dAEspzujpTa46Md046oXiGfX3PFm3AQTiDWteybQvnITIZHmjZmQzmPq2Fb+xze1OtQZAI1bJ1Ixt8jG5JHEHqJj15RzCBxldLBf8B4VmID0t8jK47wbaJVHOx58C8t2bwQBZRY4aby9YrwzWPz/oM0aVbQO5kfIPPP5zelYGoW5s27AMOhYK35UVDYRfzDpZdFB0suji3v+Pu3LHlXI0Ik4QahG3Mm2nnRidgHCdMWSg3JW8s97VPsdRnnCH7GQvdQRBA2e9oaWef4kn6hDNge3T0vJwxLBDjHHOfDo5DMPcY+oBsqCAkFF1EiAMd7QuC/WUdCP1WaQKI6ULfOyg7+Rz+ARenfQp9/irSk3Oh7z+Q+x5Jvl2Yt4ELeZBzEy70DRVUYrhV5Ds4qin+Dg4PA7kOwIW+kbyUpsP7DJV9hryRbQ7A7T20lawggrzvafgHXJxENkHFAdigxM6/tzMA3Gk0Exm+V8DFARBhYqMLyU+49eWiQykcQLcy3yPmORKvXJi3+KOg30cAZTSXgXKAbK17vBPamR8+EapPQQcAXXX1DEARTLz9UR/cde1YC7bxMdi9gIpTXRiodqA8rO1/MwAyLgWfhTyYj/Eo+qr4fsReAUAeNlZlfAd6lq5LaoCqlUF9uzlqb0LfSP+bt4W0RoJlGy87s4do10O8EyjY6oMMkLqQrrNkbYgn13TveEZ2jz/36DpDLX3jnHEtmLBvRM5Qfxgj8/Bkvz9hHihTxkg3AQZAQOGXOwrA2if9+YmDTtVleH0aHdL9dnJ3GGTf1HuWCGsFGABwNtKEmE7uncH03VvPO6l1WhhoxyKejxcuFYH5hN6GEcbTMQD9zXmky0NLF+cboHqnvyG60FYkCH2WP0LXJCd3bYLkqr6IpXZXigp0AyZ0dNnNtWHYSZJeD7ojiLmrqevB4XGAfGsnt4aBJWLvhm1epsEzTIx0tPT2izVilHGAR0mU6XuRkQa50OnIJhBljv8qkBLAJFo5mJhx8lpnUcHDb46Oc2P0VE+o9TBMUd00WuDYLoyzW03Bo4AjV6OPYM+58sWOOo5YVcbrfWsAtUCV6kv/Spzb8IovKe7RBMnVDYToFo1K90zhvrXB4dUUkoCnn0wwuDDkqMT881IKtxmODK8SsRM0O5LuHlTDioEGxMwJDTOvFM7H7dEOplp0UgN+ImuE1dYDMDDgBSibFrGF90NM7GigAAN4KzDnMg701pHpEr7Zh3n3SQUfKnJp3m9vjJuj8Lq6/6aw75AVeHjfYyo84myuOr1wHb18pIEAXYqPPqNI04hxaS3hx6a2jCeAmbwqXXAeXaQQcaIz3HFusL2XL8gUWmE+55gwzd2+9upzsmQS9TMnnq9gx3lO6lnX1ooFUNlvWE/dOX8vA7zu5Wt609FF7XMuyj1vJOBX8bWgpzeZzha8y5kdX/QIX9Bw09Ji0Km02maEgwuxmxFAzn/ljS2xbMHc4pBO73lsAe5/3EByfugJ6dExYL0o8HWrPJ6RXv+OxKQ/U0kOIfeu91c8ZMwn7hDJot4kX+8RRH6+PayJKetXD4r9vc9fPM3yTuz0t4eFxlsGLqH2tqgQMixOp8/P4FTMFV5NuFUZKl3y86sNQV1l2912tqlXcch+RMB72VtHzJvtb9P92hNW+V43loPPfMjgNn7zzVsI1Y1pA9QtFXAuozaFe5KD+0etrnNw1oZ9AF5Um0I3TvE9uAm87sFoM9voDDxQEh2/wXidw/x1T19yczJdUR87X5bfuu+dA73yXUBm0aEpqvdYI/rOIwhpkVq0kTt8GLDvWmnnL9U525EfgEOBe9uqBjeXoTlUrhX8MoH7G3LIhRkG5/D6d9BdCTzE1Ns5dOHSDVtwHDA3Rk/UwRrDnUd7RZOqB9zGrJKoIyUdRvXTBr3ed19hlKHTizF1NyHEyXUTr85M7lDbFfjp01QOyh7yXpp3P0C1U4iJSk8ty/qhIO57TbZhUeHI5n5k2cLl+nU9k35YcyliCu0U2vTh5OjUCAsVdwsQg0SfF7EXQwTEnnGOmY08nGFZHAISA/TzfMkVT17CVYAoOFzLLYuvg07BqyypSx9+YJi7veJZVr427lNE4Ja1xkRl0KeIKd9tlhovFPRO4TUbwzj2hSETAxiHVsf3WuZG6eo4lAZKEybeBCnV+uJAZry44HqzVyFZ6y5qGqEaPkce6DsVEjT5WQXlGLZai5pErJnvbmM9jZMIV79H2w2irFCsfkiIwEB1cYzVqy+S08OPTkp6kS0UJCYZ1oYMa7vmUxNbCLk+/oIo2YPdWrCOQJCQcWZQ1Lz2JDN2C7ksf59p/4NfFU3gwZ5tFN56Y1zU2TpEqeXtU/dF6ZxEbxr76jQXozpv3zH13uu/duzKzybtN3/6takI/vx6ZV+Q/61PcylbQ7uXm1qTurCx/1pNBqJ99VmQ7Pnq1OZ9svnaq2r/O3JtFH5yLNN1EV5412fudbiMV3W1y50I6ufbMo2X7fCN3tt/mn+jebFOD5sk/53xEUD0FuXJfr9PGi2/RMh8e9xUHx+HajMzaNH/AfPj3g632c91AAAAAElFTkSuQmCC;" vertex="1" parent="1">
                    <mxGeometry x="320.00000000000006" y="120" width="220.12" height="82.17" as="geometry"/>
                </mxCell>
            </root>
        </mxGraphModel>
    </diagram>
</mxfile>